<svg width="277" height="200" viewBox="0 0 277 200" fill="none" xmlns="http://www.w3.org/2000/svg">
<path d="M31.41 178.8L30.74 179.05C28.5289 179.903 26.1801 180.344 23.81 180.35C18.75 180.35 16.87 178.35 16.87 172.99V159.76H31.68V153.34H16.88V143.4H10.32L9.48004 153.4L0.480042 153.74V159.8H9.13V173.01C9.13 182.32 13.44 186.84 22.29 186.84C25.7845 186.815 29.2473 186.175 32.52 184.95L33.1 184.75L31.41 178.8Z" fill="#333333"/>
<path d="M55.6 152.57C49.36 152.57 43.82 155.42 41.06 157.12L40.52 157.5L43.61 162.88L44.18 162.55C48.18 160.2 51.46 159.11 54.46 159.11C58.78 159.11 61.19 161.04 61.64 164.85C45.9 166.11 39.46 169.69 39.46 177.14C39.46 182.86 44.09 186.85 50.73 186.85C55.51 186.85 59.88 184.29 62.42 182.42L62.88 186.09H69.39V166.5C69.4 157.64 64.37 152.57 55.6 152.57ZM61.69 170.21V176.5C58.38 179.14 55.46 180.37 52.55 180.37C50.89 180.37 47.02 180 47.02 176.57C47.02 174.02 48.79 171.23 61.7 170.21H61.69Z" fill="#333333"/>
<path d="M99.96 178.69L99.3 178.98C97.6199 179.766 95.7946 180.195 93.94 180.24C90.45 180.24 88.68 178.41 88.68 174.78V139.18H70.19V145.6H80.97V174.4C80.97 182.4 85.04 186.81 92.44 186.81C95.5034 186.834 98.5358 186.196 101.33 184.94L101.9 184.72L99.96 178.69Z" fill="#333333"/>
<path d="M121.43 152.57C119.195 152.542 116.978 152.967 114.912 153.819C112.846 154.671 110.974 155.932 109.409 157.527C107.844 159.122 106.618 161.018 105.805 163.1C104.992 165.182 104.61 167.406 104.68 169.64C104.68 179.91 111.79 186.81 122.38 186.81C126.858 186.791 131.232 185.46 134.96 182.98L135.47 182.65L132.61 177.48L132.03 177.83C129.402 179.546 126.338 180.472 123.2 180.5C117.2 180.5 113.35 177.5 112.47 172.17H136.16L136.25 171.62C136.441 170.436 136.541 169.239 136.55 168.04C136.52 158.65 130.61 152.57 121.43 152.57ZM121.61 158.83C126.09 158.83 128.81 161.42 129.43 166.17H112.66C113.77 161.68 117.09 158.83 121.61 158.83Z" fill="#333333"/>
<path d="M161.67 152.57C156.67 152.57 153.04 155.22 150.38 157.8L149.93 153.34H143.45V186.04H151.16V164.04C154.16 160.98 156.31 159.43 159.46 159.43C163.61 159.43 165.3 161.56 165.3 166.79V186.08H173.01V165.92C173.01 157.06 169.2 152.57 161.67 152.57Z" fill="#333333"/>
<path d="M208.52 178.8L207.86 179.05C205.649 179.904 203.3 180.345 200.93 180.35C195.87 180.35 193.99 178.35 193.99 172.99V159.76H208.8V153.34H193.99V143.4H187.43L186.59 153.4L177.59 153.74V159.8H186.24V173.01C186.24 182.32 190.55 186.84 199.4 186.84C202.862 186.813 206.294 186.184 209.54 184.98L210.12 184.78L208.52 178.8Z" fill="#333333"/>
<path d="M238.7 178.69L238.04 178.98C236.36 179.766 234.535 180.195 232.68 180.24C229.19 180.24 227.42 178.41 227.42 174.78V139.18H208.93V145.6H219.71V174.4C219.71 182.4 223.78 186.81 231.18 186.81C234.243 186.834 237.276 186.196 240.07 184.94L240.64 184.72L238.7 178.69Z" fill="#333333"/>
<path d="M269.13 153.34L262.76 170.09L261.52 173.5C261 174.98 260.47 176.5 259.95 177.95C258.9 175.24 257.81 172.49 256.78 170.05L249.61 153.35H241.73L256.36 185.25L255.64 187.12C254.13 190.87 251.69 192.69 248.18 192.69C247.318 192.675 246.463 192.537 245.64 192.28L244.99 192.09L243.43 198.34L244.01 198.53C245.471 198.98 246.991 199.206 248.52 199.2C255.36 199.2 259.77 195.62 262.8 187.61L276.65 153.33L269.13 153.34Z" fill="#333333"/>
<path d="M88.96 98.7H73.32C72.8718 98.7 72.4419 98.522 72.125 98.205C71.8081 97.8881 71.63 97.4582 71.63 97.01V14.23C71.6247 14.0047 71.6645 13.7806 71.747 13.571C71.8295 13.3613 71.9532 13.1702 72.1107 13.009C72.2681 12.8479 72.4562 12.7198 72.6639 12.6324C72.8716 12.5449 73.0947 12.4999 73.32 12.5H88.74C89.1882 12.5 89.6181 12.3219 89.9351 12.005C90.252 11.6881 90.43 11.2582 90.43 10.81V2.56C90.43 2.11178 90.252 1.68193 89.9351 1.36499C89.6181 1.04805 89.1882 0.869995 88.74 0.869995H61.47C61.0218 0.869995 60.592 1.04805 60.275 1.36499C59.9581 1.68193 59.78 2.11178 59.78 2.56V108.7C59.78 109.148 59.9581 109.578 60.275 109.895C60.592 110.212 61.0218 110.39 61.47 110.39H88.97C89.192 110.39 89.4117 110.346 89.6168 110.261C89.8218 110.176 90.0081 110.052 90.165 109.895C90.322 109.738 90.4464 109.552 90.5314 109.347C90.6163 109.142 90.66 108.922 90.66 108.7V100.39C90.66 100.167 90.616 99.9466 90.5305 99.7409C90.4449 99.5352 90.3195 99.3485 90.1615 99.1914C90.0035 99.0344 89.816 98.9101 89.6098 98.8258C89.4036 98.7414 89.1828 98.6987 88.96 98.7Z" fill="#30308C"/>
<path d="M203.52 0.900024H176.24C175.792 0.900024 175.362 1.07808 175.045 1.39502C174.728 1.71196 174.55 2.14181 174.55 2.59003V10.84C174.55 11.2882 174.728 11.7181 175.045 12.035C175.362 12.352 175.792 12.53 176.24 12.53H191.66C192.108 12.53 192.538 12.7081 192.855 13.025C193.172 13.342 193.35 13.7718 193.35 14.22V27.6C193.35 28.0483 193.528 28.4781 193.845 28.795C194.162 29.112 194.592 29.29 195.04 29.29H203.52C203.968 29.29 204.398 29.112 204.715 28.795C205.032 28.4781 205.21 28.0483 205.21 27.6V2.60004C205.211 2.37726 205.169 2.15642 205.084 1.95023C205 1.74403 204.876 1.55654 204.719 1.39854C204.562 1.24055 204.375 1.11517 204.169 1.02962C203.963 0.944062 203.743 0.900021 203.52 0.900024Z" fill="#30308C"/>
<path d="M203.52 37.5H195.05C194.602 37.5 194.172 37.6781 193.855 37.995C193.538 38.3119 193.36 38.7418 193.36 39.19V97.02C193.36 97.4682 193.182 97.8981 192.865 98.215C192.548 98.5319 192.118 98.71 191.67 98.71H176.03C175.582 98.71 175.152 98.8881 174.835 99.205C174.518 99.5219 174.34 99.9518 174.34 100.4V108.71C174.34 109.158 174.518 109.588 174.835 109.905C175.152 110.222 175.582 110.4 176.03 110.4H203.52C203.968 110.4 204.398 110.222 204.715 109.905C205.032 109.588 205.21 109.158 205.21 108.71V39.17C205.205 38.7253 205.024 38.3005 204.708 37.9879C204.392 37.6753 203.965 37.5 203.52 37.5Z" fill="#30308C"/>
<path d="M136.7 91.15L133.89 82.5L133.23 82.79C130.576 84.0369 127.691 84.718 124.76 84.79C120.86 84.79 116.22 83.26 116.22 75.95V20.95H88.22V30.2H104.98V75.32C104.98 87.53 111.19 94.25 122.46 94.25C127.91 94.25 131.21 93.32 136.15 91.37L136.7 91.15Z" fill="#30308C"/>
<path d="M179.24 43.4299H168.3L158.52 69.2099C157.96 70.8199 157.36 72.5099 156.74 74.2099C155.74 76.8999 154.8 79.6699 153.88 82.3299C152.13 77.8399 150.32 73.2 148.6 69.14L137.52 43.4299H126.07L148.64 92.64L147.46 95.7099C145.08 101.61 141.07 104.6 135.53 104.6C134.156 104.579 132.792 104.36 131.48 103.95L130.82 103.75L128.56 112.75L129.14 112.94C131.373 113.62 133.696 113.957 136.03 113.94C146.49 113.94 153.23 108.45 157.89 96.1499L178.89 44.2599L179.24 43.4299Z" fill="#30308C"/>
</svg>
